<svg width="826" height="827" viewBox="0 0 826 827" fill="none" xmlns="http://www.w3.org/2000/svg">
<path d="M408.292 195.737C427.683 205.783 444.436 217.484 460.329 230.348C526.48 284.071 571.582 352.005 593.305 434.274C610.303 498.656 611.04 563.161 585.573 626.378C554.83 702.705 480.579 750.793 402.278 743.871C334.655 737.929 277.525 709.383 230.458 661.111C164.001 593.054 138.289 510.295 146.144 416.816C153.508 329.401 190.817 255.892 256.415 197.759C306.673 153.163 366.564 130.008 433.697 125.842C609.812 114.816 744.691 247.01 772.121 396.785C785.621 470.355 776.969 541.537 747.943 610.39C746.348 614.249 744.752 618.047 742.175 624.357C749.661 618.966 753.466 613.453 757.516 608.307C803.294 549.561 825.815 482.607 825.999 408.485C826.244 297.67 786.173 202.476 708.486 124.127C634.91 49.8215 544.643 8.41131 440.201 1.06039C342.387 -5.86172 253.163 21.2754 173.328 77.5099C81.2817 142.321 24.1516 230.777 6.47866 341.653C-20.0921 508.519 35.1972 644.633 169.953 747.301C225.549 789.691 288.877 815.419 358.403 823.873C436.397 833.368 510.709 822.464 575.387 774.193C639.697 726.167 676.208 660.621 685.474 581.722C699.281 463.801 655.836 365.543 573.976 282.846C526.971 235.371 470.884 201.067 408.599 176.931C394.178 171.295 389.76 174.052 389.821 190.101C389.883 210.071 388.164 229.796 384.176 249.399C374.787 295.955 350.855 335.343 324.223 373.568C301.825 405.667 278.813 437.337 263.841 473.969C222.911 573.758 293.173 666.563 370.308 680.959C436.213 693.272 507.825 663.194 521.08 577.127C532.493 503.067 512.55 436.357 469.656 375.835C468 373.507 465.852 371.485 461.986 370.015C463.397 374.242 464.87 378.469 466.343 382.695C486.9 441.932 492.975 502.148 477.756 563.528C473.89 579.149 466.956 593.606 456.034 605.796C435.845 628.4 407.924 633.546 381.599 618.415C347.357 598.751 337.846 566.591 339.625 529.836C341.282 495.961 354.782 465.332 367.792 434.642C391.908 377.672 407.74 318.804 409.887 256.689C410.562 236.902 409.335 217.116 408.353 195.86L408.292 195.737Z" fill="url(#paint0_linear_660_1413)"/>
<defs>
<linearGradient id="paint0_linear_660_1413" x1="0.0354175" y1="413.386" x2="825.938" y2="413.386" gradientUnits="userSpaceOnUse">
<stop stop-color="#8800FF"/>
<stop offset="1" stop-color="#3305C1"/>
</linearGradient>
</defs>
</svg>
